<?xml version="1.0" encoding="iso-8859-1"?>
<!-- Generator: Adobe Illustrator 16.0.0, SVG Export Plug-In . SVG Version: 6.00 Build 0)  -->
<!DOCTYPE svg PUBLIC "-//W3C//DTD SVG 1.1//EN" "http://www.w3.org/Graphics/SVG/1.1/DTD/svg11.dtd">
<svg xmlns="http://www.w3.org/2000/svg" xmlns:xlink="http://www.w3.org/1999/xlink" version="1.1" id="Capa_1" x="0px" y="0px" width="32px" height="32px" viewBox="0 0 311.541 311.541" style="enable-background:new 0 0 311.541 311.541;" xml:space="preserve">
  <g>
    <path
      fill="#ffffff"
      d="M 155.7705,-1.434375e-6 C 107.22482,-1.434375e-6 63.859458,22.083876 35.291752,56.89274 c -2.758,3.35975 -5.436322,7.062358 -7.91022,10.648374 -1.931655,2.809211 -3.728333,5.580566 -5.476307,8.518699 -0.798515,1.336609 -1.674693,2.592966 -2.433914,3.955111 -0.592129,1.067407 -0.953603,2.264036 -1.521196,3.346632 -1.587775,3.014821 -3.171768,5.999627 -4.563589,9.127177 -1.455036,3.279106 -2.724544,6.64627 -3.9551106,10.039897 -1.4830984,4.09006 -2.8130354,8.23238 -3.9551103,12.47381 -1.1580864,4.30089 -2.2519039,8.64269 -3.0423926,13.08229 -0.017329,0.0964 0.017145,0.20785 0,0.30424 -0.6536018,3.71237 -1.1354946,7.45882 -1.52119632,11.25685 C 0.36979066,144.93462 -1.6e-6,150.33835 -1.6e-6,155.7705 c 0,5.41584 0.37300639,10.54704 0.91271778,15.82044 0.41724922,4.07685 1.09978702,8.192 1.82543552,12.16957 0.7699892,4.2233 1.6349503,8.37674 2.7381534,12.47381 0.9983871,3.70781 2.0868466,7.35971 3.3466318,10.95261 0.5021476,1.43159 0.9787587,2.84722 1.5211961,4.25935 0.897832,2.33865 1.732346,4.71472 2.738154,6.99751 1.731104,3.92081 3.743464,7.81794 5.780545,11.56109 1.811297,3.32826 3.739275,6.55977 5.780546,9.73565 0.645611,1.00461 1.157542,2.05378 1.825436,3.0424 2.724343,4.03278 5.743046,7.80921 8.822938,11.56109 28.56585,34.91194 71.849728,57.19698 120.478748,57.19698 46.59958,0 88.28198,-20.50828 116.82787,-52.93763 2.98195,-3.38762 5.83614,-7.00925 8.5187,-10.64838 2.59903,-3.52579 5.00164,-7.20863 7.30175,-10.95261 0.074,-0.11975 0.23102,-0.18429 0.30424,-0.30424 0.11741,-0.19247 0.1876,-0.41552 0.30423,-0.60848 2.09389,-3.46327 3.95566,-7.01572 5.78055,-10.64837 0.16122,-0.32089 0.4494,-0.59057 0.60848,-0.91272 0.2394,-0.48444 0.37395,-1.03393 0.60848,-1.52119 1.48663,-3.09223 2.97502,-6.23 4.25935,-9.43142 0.25147,-0.62688 0.66913,-1.19456 0.91272,-1.82544 0.49544,-1.28125 0.75461,-2.65773 1.21695,-3.95511 1.10603,-3.11062 2.13205,-6.2333 3.04239,-9.43141 1.27996,-4.4966 2.47049,-9.03818 3.34664,-13.69077 0.14963,-0.79501 0.16677,-1.63467 0.30424,-2.43392 0.60565,-3.51989 1.15596,-7.0519 1.52119,-10.64837 0.53163,-5.23025 0.91272,-10.44935 0.91272,-15.82044 0,-5.47401 -0.36078,-10.79722 -0.91272,-16.12468 -0.22937,-2.25866 -0.58789,-4.46418 -0.91272,-6.69327 -0.29847,-2.02095 -0.53727,-4.08996 -0.91271,-6.08478 -0.88571,-4.75384 -2.03968,-9.40358 -3.34664,-13.99501 -1.08776,-3.82139 -2.28471,-7.56137 -3.65087,-11.25685 -0.22285,-0.60273 -0.37842,-1.22623 -0.60847,-1.825434 -0.0818,-0.210875 -0.22178,-0.398091 -0.30424,-0.608479 -1.61368,-4.148957 -3.52614,-8.20195 -5.47631,-12.16957 -2.05498,-4.180851 -4.28477,-8.210186 -6.69326,-12.169571 -2.37903,-3.91093 -4.90207,-7.582022 -7.60599,-11.256852 -0.0477,-0.06484 0.0477,-0.239517 0,-0.304239 -1.69191,-2.290466 -3.36036,-4.500979 -5.17206,-6.693264 -1.05816,-1.282207 -2.24872,-2.403589 -3.34664,-3.650871 C 244.05248,20.508272 202.37008,-1.434375e-6 155.7705,-1.434375e-6 z"
      id="path3026" />
    <path
      fill="#666666"
      d="M 10.6875,19.84375 C 6.766552,20.965092 3.9746426,23.325394 3.625,26.125 6.5591474,29.710987 11.00506,32 16,32 c 4.786486,0 9.067903,-2.106512 12,-5.4375 -0.08998,-2.913003 -2.826406,-5.405668 -6.78125,-6.625 C 19.800869,21.216202 17.975522,22 16,22 13.976921,22 12.119966,21.178431 10.6875,19.84375 z"
      transform="scale(9.7356563,9.7356563)"
      id="path3020" />
    <path
      fill="#666666"
      d="m 155.771,195.60018 c -9.944,0 -19.314,-2.732 -27.634,-7.464 -20.05,-11.409 -33.855002,-34.756 -33.855002,-61.711 0,-38.142997 27.583002,-69.175997 61.489002,-69.175997 33.909,0 61.489,31.033 61.489,69.175997 0,27.369 -14.237,51.004 -34.786,62.215 -8.095,4.414 -17.128,6.96 -26.703,6.96 z"
      id="path3014" />
  </g>
</svg>