<?xml version="1.0" encoding="UTF-8" standalone="no"?>
<!-- Created with Inkscape (http://www.inkscape.org/) -->

<svg
   xmlns:dc="http://purl.org/dc/elements/1.1/"
   xmlns:cc="http://creativecommons.org/ns#"
   xmlns:rdf="http://www.w3.org/1999/02/22-rdf-syntax-ns#"
   xmlns:svg="http://www.w3.org/2000/svg"
   xmlns="http://www.w3.org/2000/svg"
   xmlns:sodipodi="http://sodipodi.sourceforge.net/DTD/sodipodi-0.dtd"
   xmlns:inkscape="http://www.inkscape.org/namespaces/inkscape"
   id="svg2"
   version="1.1"
   inkscape:version="0.48.5 r10040"
   width="5621"
   height="1391"
   viewBox="0 0 5621 1391"
   sodipodi:docname="tktpasslogo.svg">
  <metadata
     id="metadata8">
    <rdf:RDF>
      <cc:Work
         rdf:about="">
        <dc:format>image/svg+xml</dc:format>
        <dc:type
           rdf:resource="http://purl.org/dc/dcmitype/StillImage" />
        <dc:title></dc:title>
      </cc:Work>
    </rdf:RDF>
  </metadata>
  <defs
     id="defs6" />
  <sodipodi:namedview
     pagecolor="#ffffff"
     bordercolor="#666666"
     borderopacity="1"
     objecttolerance="10"
     gridtolerance="10"
     guidetolerance="10"
     inkscape:pageopacity="0"
     inkscape:pageshadow="2"
     inkscape:window-width="1440"
     inkscape:window-height="838"
     id="namedview4"
     showgrid="false"
     inkscape:zoom="0.11243551"
     inkscape:cx="3298.8312"
     inkscape:cy="550.37056"
     inkscape:window-x="-8"
     inkscape:window-y="-8"
     inkscape:window-maximized="1"
     inkscape:current-layer="svg2" />
  <path
     style="fill:#6cc84e;fill-opacity:1"
     d="m 758,1261.4153 c -44.98535,-2.996 -74.60505,-7.409 -111.47999,-16.6093 -53.35002,-13.311 -106.40669,-35.0524 -151.27001,-61.9872 l -8.25,-4.953 0,-168.4751 c 0,-183.55058 -0.25314,-174.99038 5.60365,-189.49256 3.72699,-9.22851 12.32534,-21.66695 19.8319,-28.68897 19.9927,-18.70219 51.71689,-26.87054 71.08518,-18.30303 5.69859,2.52076 14.65979,11.03153 28.00133,26.59386 20.23155,23.59922 35.59766,36.36114 55.97441,46.48808 35.02948,17.40913 84.73631,25.27225 139.39938,22.05158 48.40748,-2.85211 82.09301,-12.36988 110.88222,-31.32955 14.81544,-9.75698 25.41103,-19.8518 44.39511,-42.29691 18.57027,-21.95585 28.77023,-27.07235 48.68632,-24.42201 19.9558,2.65562 34.0861,9.66896 48.1405,23.89367 10.7992,10.93011 15.9934,19.62262 20.6841,34.61514 l 2.8159,9 0.2748,170.0268 0.2748,170.0268 -11.7748,6.9497 c -15.9418,9.4092 -46.6103,24.81 -64.2748,32.2769 -54.4246,23.0057 -109.19078,36.7726 -170,42.7338 -14.63411,1.4346 -67.06145,2.6964 -79,1.9013 z m 2326.2724,-32.8334 c -10.6681,-3.9638 -19.5076,-12.3285 -22.7552,-21.533 -1.3454,-3.8135 -1.5172,-44.7404 -1.5172,-361.49313 0,-311.0334 0.1896,-357.83119 1.4671,-362.13304 2.0157,-6.7876 9.7987,-16.2253 16.2468,-19.70092 7.8095,-4.2094 17.1322,-4.91495 60.0225,-4.54253 37.222,0.32321 37.8388,0.36184 43.0052,2.69386 6.2644,2.82759 11.1753,7.99606 15.0577,15.84728 1.5719,3.17877 7.9976,20.74094 14.2793,39.02704 6.2818,18.2861 11.6464,33.23786 11.9214,33.22613 0.275,-0.0117 7.25,-8.85425 15.5,-19.65005 8.25,-10.7958 18.5658,-23.41603 22.924,-28.04494 17.8336,-18.94145 38.2687,-32.1139 63.7968,-41.12343 17.1226,-6.04303 33.3099,-8.23253 60.8804,-8.23471 49.3709,-0.004 89.9382,9.46431 131.8988,30.78448 84.9776,43.1771 142.5432,128.04265 155.5343,229.29506 2.2037,17.17555 2.9999,53.17506 1.5593,70.5 -5.2735,63.41964 -25.4345,117.69246 -61.8002,166.36448 -10.419,13.94498 -36.8168,40.76899 -50.2934,51.10552 -32.9688,25.2871 -69.5373,42.9961 -107.5,52.0591 -24.1313,5.7609 -38.3873,7.324 -67.5,7.4009 -29.2627,0.077 -38.0861,-0.9687 -55.5,-6.5792 -12.441,-4.0084 -31.2568,-13.4191 -41.9887,-21.0007 -8.9778,-6.3424 -30.861,-27.234 -44.3602,-42.3501 l -7.1442,-8 0,108.0663 c 0,73.6731 -0.3501,109.942 -1.0929,113.9598 -1.4973,8.1001 -4.9506,14.459 -10.5092,19.3519 -8.2136,7.2299 -7.134,7.1286 -75.3328,7.0699 l -60.5685,-0.052 -6.2276,-2.3139 z m 310.0175,-327.07323 c 26.2358,-4.57513 48.5266,-16.32763 68.265,-35.99164 19.2227,-19.15024 31.7441,-42.38513 38.0019,-70.51703 17.5883,-79.06742 -20.3295,-155.44184 -88.3453,-177.94631 -30.1108,-9.96278 -67.8399,-7.77391 -98.7804,5.73077 -42.5219,18.55968 -72.5817,54.12566 -85.1231,100.71554 -2.5258,9.38276 -2.6955,11.35793 -2.75,32 -0.047,17.889 0.2888,23.57852 1.7981,30.44742 4.0847,18.59011 11.7202,36.67524 22.2335,52.66163 7.9172,12.03878 26.985,31.07727 39.3464,39.286 17.3741,11.5375 38.5626,20.19645 57.564,23.52436 10.945,1.91691 37.03,1.96563 47.7899,0.0893 z M 1164,978.80997 c 0,-138.98293 -0.1482,-145.64251 -3.6243,-162.80997 -5.1082,-25.22842 -19.4759,-53.52944 -37.0525,-72.98502 -15.4894,-17.14518 -30.3718,-28.51741 -49.8232,-38.07177 -41.977,-20.61871 -88.74597,-22.38749 -124,-4.68959 -17.00614,8.53726 -25.93617,16.25175 -49.3222,42.60859 -7.49686,8.44921 -16.56626,17.81275 -20.15423,20.80785 -12.34879,10.30832 -30.30295,17.40224 -53.25882,21.04325 -9.0995,1.44326 -17.31951,1.78311 -42.76475,1.76806 -28.20122,-0.0167 -32.80009,-0.253 -43.91456,-2.25666 -20.98009,-3.78219 -33.36234,-8.21921 -44.72264,-16.02579 -6.68558,-4.5942 -19.34056,-17.30511 -34.39076,-34.54274 -16.03614,-18.36688 -28.99122,-28.42704 -46.14041,-35.82997 -22.86393,-9.86986 -50.00024,-12.2591 -77.92843,-6.86127 -63.14189,12.20378 -114.14854,61.78017 -127.86853,124.28302 -3.3436,15.2321 -3.42286,18.41494 -3.97845,159.75204 L 404.5,1116.5 381.9568,1094 c -12.39876,-12.375 -27.2037,-28.1001 -32.89986,-34.9447 C 282.44035,979.00804 240.18535,887.24612 223.08877,785.5 c -5.50239,-32.74612 -6.48576,-46.50703 -6.53873,-91.5 -0.0534,-45.39169 0.70575,-56.90632 5.96792,-90.51487 C 258.34514,374.66311 432.59507,188.67326 659,137.59553 c 42.22211,-9.52545 79.93903,-13.58889 126.17136,-13.5931 62.28607,-0.006 117.94126,8.73119 176.1065,27.64554 68.65474,22.32538 132.51514,57.8935 190.22214,105.94747 16.7926,13.9836 53.0673,50.17926 67.3602,67.21337 18.8197,22.42925 35.0594,44.71379 49.3295,67.69119 114.4555,184.29476 114.1083,418.07913 -0.894,601.91896 -24.9921,39.95164 -58.7975,81.20814 -91.7547,111.97834 L 1164,1117.1724 z M 646.95773,598.92384 c 7.65343,-1.7637 13.5732,-5.4607 24.74257,-15.45215 43.62985,-39.02869 98.65643,-52.83959 154.71403,-38.83105 26.69505,6.67096 51.27125,20.29796 73.48329,40.74496 9.71063,8.93899 15.2249,12.03456 24.47318,13.73863 22.81143,4.20317 44.55407,-12.86924 46.3322,-36.38023 1.07321,-14.19036 -3.12272,-23.12874 -17.15436,-36.54308 C 917.87267,492.09447 871.50706,469.67117 820.5,461.85606 c -16.78164,-2.57123 -50.19536,-3.06416 -65.5,-0.96628 -55.381,7.59131 -104.37323,30.98289 -141.72037,67.66507 -9.09572,8.93378 -12.61964,15.13095 -14.42186,25.3623 -4.73355,26.87283 21.2575,51.19243 48.09996,45.00669 z M 529.20078,481.87562 c 8.44155,-1.79111 14.21667,-5.32354 24.59595,-15.04446 26.64848,-24.95815 51.62758,-42.54057 82.22505,-57.87699 C 746.01106,353.82406 879.10477,364.46294 979,436.37021 c 11.27212,8.11398 23.7531,18.55503 35.8735,30.0102 14.6817,13.87598 25.7914,18.3367 39.3765,15.81029 13.9031,-2.58554 24.1057,-10.38905 30.0855,-23.01109 2.8763,-6.07125 3.1609,-7.54484 3.1254,-16.17961 -0.063,-15.20057 -1.8423,-18.64797 -17.8358,-34.55002 -7.2188,-7.17751 -19.2001,-17.89824 -26.6251,-23.82385 -61.69711,-49.23812 -131.60685,-78.34728 -212,-88.27301 -20.56963,-2.53963 -71.49186,-2.54805 -91.99002,-0.0152 -62.84509,7.76538 -115.7735,25.71971 -167.71088,56.89074 -34.70739,20.83017 -77.50637,56.30208 -85.08273,70.51678 -15.94779,29.92112 10.07479,65.1129 42.98441,58.1302 z M 4662.5746,1061.9476 c -59.3159,-4.0599 -110.1769,-21.9642 -152.2189,-53.5848 -17.3304,-13.03443 -39.6704,-37.08156 -45.3821,-48.84983 -4.9818,-10.2643 -5.6282,-22.32714 -1.6924,-31.58263 0.892,-2.09782 14.7106,-16.6377 35.5733,-37.43034 35.3699,-35.25106 40.5191,-39.5 47.8697,-39.5 5.4357,0 14.0987,5.28521 24.8226,15.144 11.9089,10.94825 18.4974,16.03733 28.9532,22.3639 15.7442,9.52644 37.2573,18.30405 53.9629,22.01753 10.4423,2.32121 38.1415,1.54631 52.5371,-1.46976 11.2022,-2.34702 23.7049,-8.1924 29.407,-13.74863 6.2245,-6.06536 8.055,-11.15071 8.0526,-22.3712 0,-8.77977 -0.2703,-10.10904 -3.2728,-16.20802 -7.3777,-14.98621 -15.3752,-18.75724 -80.7545,-38.07814 -29.4519,-8.70363 -46.5089,-15.10649 -66.9323,-25.12511 C 4536.1996,765.41613 4501.3508,726.50395 4489.1435,677 c -7.4378,-30.16206 -8.6565,-65.94681 -3.1128,-91.4036 16.2476,-74.60949 81.2755,-124.18799 175.9693,-134.16232 18.9366,-1.99464 60.7058,-1.48391 76.5,0.93541 37.1892,5.69654 64.8158,16.22019 95,36.18794 13.5331,8.95253 24.3232,17.59686 39.9763,32.02632 17.9817,16.57598 23.4524,24.18927 23.5017,32.70609 0.048,8.22004 -1.0464,9.42127 -35.0975,38.53551 -9.6907,8.28571 -24.0215,21.20603 -31.8463,28.7118 -15.5827,14.94745 -19.5469,17.4123 -28.0342,17.43112 -8.436,0.0187 -14.6568,-3.39979 -24.3312,-13.37063 -4.4928,-4.63052 -10.3858,-10.06868 -13.0955,-12.0848 -15.1605,-11.28002 -37.9971,-17.67641 -63.0733,-17.66646 -24.1651,0.01 -40.7985,7.02194 -45.9493,19.3715 -0.8881,2.12918 -1.5465,6.61597 -1.5409,10.5 0.028,19.5393 14.6515,29.60973 55.5811,38.276 38.5188,8.15582 104.5302,34.73926 133.4091,53.72518 39.782,26.15397 64.6498,60.4639 74.4488,102.71662 4.5856,19.77252 6.0413,57.32303 3.0406,78.43423 -11.9193,83.85884 -78.5403,143.41649 -178.9894,160.01249 -24.568,4.059 -55.6357,5.6592 -78.9254,4.0652 z m 537,-0.061 c -69.8715,-4.4512 -131.5419,-30.0545 -173.4423,-72.00699 -26.6987,-26.73201 -33.8425,-43.73472 -26.0177,-61.924 2.9089,-6.76188 66.9927,-70.53276 74.8182,-74.45278 10.1485,-5.08374 17.2831,-2.15626 35.5778,14.59844 12.6427,11.5784 21.3837,17.79057 35.5506,25.26562 13.9678,7.37001 26.0965,12.15969 39.7564,15.7001 9.5431,2.47339 13.2277,2.93059 23.5,2.91598 38.3416,-0.0545 62.6244,-8.79754 69.6238,-25.06801 3.0108,-6.99891 3.0169,-20.27836 0.013,-28.30719 -5.1543,-13.77625 -16.8464,-20.41555 -57.4543,-32.62513 -45.4216,-13.65694 -49.5167,-14.97042 -64.5,-20.68804 -16.302,-6.22085 -35.4925,-15.43739 -48.4891,-23.28771 -30.5473,-18.45146 -57.2971,-45.83023 -70.6804,-72.34229 -10.7303,-21.25661 -17.0081,-48.22643 -18.4274,-79.1643 -2.2231,-48.46241 12.7941,-88.79965 45.0571,-121.02623 14.9192,-14.90238 26.5812,-23.24401 46.5398,-33.28914 23.6463,-11.90115 48.398,-19.42269 78.5,-23.85452 15.3363,-2.25792 67.7133,-2.57267 82.5,-0.49576 38.4119,5.39527 69.8057,17.34328 100.5,38.24873 15.9763,10.88123 25.9365,19.26182 42.6292,35.86836 13.8036,13.73239 15.8319,16.17372 17.3643,20.90065 3.5951,11.08971 0.9572,15.4915 -19.637,32.76833 -18.5715,15.57986 -31.5149,27.04654 -48.7504,43.18823 -7.2284,6.76976 -14.6949,12.95726 -16.5922,13.75 -1.8973,0.79274 -5.8266,1.43695 -8.7318,1.43158 -8.2934,-0.0153 -14.6686,-3.58302 -24.7543,-13.8528 -14.2301,-14.48996 -25.166,-20.8327 -44.0278,-25.53587 -32.4418,-8.08935 -66.0627,-3.04161 -75.5854,11.34817 -5.6816,8.58538 -5.2646,22.12403 0.9338,30.32117 7.5623,10.00093 21.1957,16.09111 50.7109,22.65309 37.8462,8.4142 98.04,31.86893 126.7216,49.37753 39.3584,24.02616 64.4916,54.15729 77.2288,92.5862 5.543,16.72366 8.0336,32.78097 8.7033,56.11228 1.0518,36.64277 -3.8626,61.40975 -17.7591,89.5 -18.1286,36.64495 -46.3567,63.906 -86.4539,83.4924 -33.7528,16.4873 -70.3764,25.4343 -114.5,27.9721 -19.361,1.1135 -21.7933,1.1088 -40.4254,-0.078 z M 4022.5,1059.8719 c -52.3207,-4.9868 -105.0883,-24.9221 -147.5,-55.7246 -55.8186,-40.5395 -96.2619,-99.40167 -114.4295,-166.54344 -15.1852,-56.12021 -13.6796,-121.22677 4.0726,-176.10386 33.6783,-104.10931 119.6196,-181.45135 225.3996,-202.84602 30.0854,-6.08496 68.5833,-7.64796 91.313,-3.70726 27.2424,4.72306 56.1323,18.43234 80.0801,38.00078 14.581,11.91463 33.5153,32.43263 45.9114,49.75171 2.834,3.95957 5.3778,7.21788 5.6528,7.24069 0.275,0.0228 4.0295,-11.09182 8.3434,-24.69921 8.6783,-27.37418 17.4934,-50.60989 21.526,-56.74069 1.6613,-2.52568 4.4739,-4.92145 7.6309,-6.5 l 4.9997,-2.5 45,0 c 53.7758,0 53.0788,-0.1087 63.0087,9.82733 11.1654,11.17238 9.9913,-22.45521 9.9913,286.17267 l 0,269 -2.3112,5.7214 c -1.718,4.2533 -3.8879,7.1484 -8.4556,11.2819 -10.1995,9.23 -8.3522,8.9967 -71.2332,8.9967 -60.7497,0 -60.7348,0 -68.5292,-7.413 -4.6757,-4.4479 -7.0492,-9.531 -18.5564,-39.7414 l -8.8197,-23.15449 -16.524,16.01616 c -26.7453,25.92323 -43.7462,38.64423 -66.5707,49.81183 -23.7087,11.6002 -38.844,15.0561 -65,14.8417 -8.8,-0.072 -20.05,-0.5171 -25,-0.9889 z m 59,-160.87211 c 13.6109,-2.89894 22.9831,-6.18175 36,-12.60981 39.9738,-19.73995 66.9912,-55.14794 76.6008,-100.38998 2.9723,-13.99365 3.2661,-41.85061 0.5854,-55.5 -5.9244,-30.16525 -20.1688,-57.64806 -40.6862,-78.49942 -27.8366,-28.28966 -63.2784,-43.01618 -103.4738,-42.99468 -70.1398,0.0375 -124.0091,52.98832 -132.463,130.20469 -4.1513,37.91664 5.1602,77.37453 25.4368,107.78941 2.75,4.125 9.275,11.78947 14.5,17.03215 20.5149,20.58434 47.3896,33.61645 77,37.33901 8.9601,1.12644 36.7254,-0.2895 46.5,-2.37137 z"
     id="path2989"
     inkscape:connector-curvature="0"
     sodipodi:nodetypes="ssscsssssssssssscccssssccssssssscsssssssssscssscscssccccssssscssssccsssssssssssssssscssssssssssssscssssssssssssscsssssscssssssccssscssssssscssssssssscsssssccssssssscssssssssssssssssssssssssssssssssssssccsssssssscssccsssccsscscsscssssssssssss" />
  <path
     inkscape:connector-curvature="0"
     id="path2991"
     d="m 1669,1049.6095 c -13.7972,-3.0677 -21.2942,-10.9303 -23.909,-25.0749 -0.7632,-4.1289 -1.091,-62.45359 -1.091,-194.15177 l 0,-188.24984 -23.25,-0.3165 c -21.938,-0.29863 -23.545,-0.44985 -28.477,-2.67976 -6.6757,-3.01822 -12.3616,-9.19992 -15.377,-16.71792 l -2.374,-5.91881 -0.3191,-51.94133 c -0.2155,-35.07917 0.044,-54.09178 0.7982,-58.56548 2.1409,-12.69241 9.1883,-20.89317 20.9585,-24.38855 C 1600.18,480.35133 1606.0223,480 1622.644,480 l 21.281,0 0.2875,-59.25 0.2875,-59.25 2.9375,-5.30245 c 4.0705,-7.34765 12.5554,-13.24265 27.7925,-19.30916 2.8985,-1.15402 29.12,-10.45579 58.27,-20.6706 l 53,-18.57239 8.8543,0.0723 c 7.7069,0.0629 9.5858,0.44624 14.5,2.95799 5.0083,2.55992 6.0095,3.61601 8.868,9.35499 2.1396,4.29569 3.5641,9.07225 4.2395,14.21639 0.6632,5.05065 0.7898,33.49047 0.3637,81.71027 l -0.6535,73.96319 44.414,0.28973 c 44.1888,0.28826 44.4377,0.30151 49.0865,2.61341 9.069,4.51015 14.5233,11.68557 16.7043,21.97554 1.5508,7.31652 1.5498,104.09194 0,111.40156 -2.2693,10.69543 -7.7666,18.16874 -16.8756,22.94142 l -4.5,2.3578 -44.4006,0.28969 -44.4007,0.28969 0.4007,190.71031 c 0.3819,181.80932 0.3164,190.95162 -1.4034,195.88082 -2.1431,6.1428 -8.2314,13.3869 -14.1813,16.8738 -8.7241,5.1126 -13.1524,5.4266 -75.5147,5.3545 -41.4356,-0.048 -59.0366,-0.4081 -63,-1.2893 z m 362.5,0.4731 c -7.9579,-1.9843 -16.8015,-10.2242 -21.3199,-19.8645 L 2007.5,1024.5 2007.219,666 c -0.2182,-278.34473 -0.01,-359.49059 0.9305,-362.9305 1.6099,-5.88764 7.1564,-11.32265 13.9802,-13.69916 5.0439,-1.75665 9.5341,-1.87034 73.8703,-1.87034 l 68.5,0 4.5,2.66079 c 5.9773,3.53427 9.4075,7.28593 12.1964,13.33921 l 2.3036,5 0.5,175.3654 0.5,175.3654 83.1562,-92.3654 c 45.736,-50.80097 84.661,-93.7967 86.5,-95.54607 1.8391,-1.74937 5.8188,-4.44937 8.8438,-6 l 5.5,-2.81933 82.5,0 82.5,0 4.8419,2.84599 c 5.9657,3.50659 8.6044,8.64063 8.6361,16.80313 0.019,4.90051 -0.4749,6.37934 -3.728,11.15953 -2.0625,3.03074 -46.5,50.61754 -98.75,105.74845 -52.25,55.13091 -95.1098,100.73412 -95.2441,101.34046 -0.1342,0.60634 53.4158,70.05209 119,154.32388 65.5843,84.2718 120.7407,155.23526 122.5699,157.69656 7.0084,9.4305 9.0307,20.8947 5.1818,29.3751 -1.5385,3.39 -2.954,4.7575 -6.728,6.5 l -4.7796,2.2069 -86,0 -86,0 -4.067,-2.177 c -2.2369,-1.1973 -6.7369,-5.0491 -10,-8.5595 -3.2632,-3.5104 -37.1999,-50.68076 -75.415,-104.82302 -38.2151,-54.14227 -73.3679,-103.9446 -78.1173,-110.67187 l -8.6353,-12.23138 -25.3827,26.44699 -25.3827,26.447 -0.5,80.28439 -0.5,80.28439 -3.1219,6.5886 c -3.6752,7.7561 -8.9183,13.3422 -15.2887,16.2887 -4.5127,2.0872 -5.6507,2.1255 -68.0894,2.288 -34.925,0.091 -64.85,-0.1712 -66.5,-0.5827 z m 691.5453,-0.175 c -6.7045,-1.3142 -14.6346,-5.5863 -18.0452,-9.7212 -1.6724,-2.0275 -4.0441,-6.1614 -5.2704,-9.1864 l -2.2297,-5.5 -0.2674,-191.68366 -0.2675,-191.68367 -23.2325,-0.31633 c -23.1076,-0.31464 -23.2632,-0.33136 -28.9142,-3.10643 -6.3545,-3.12053 -11.2078,-8.07526 -13.9235,-14.21459 -3.5706,-8.07193 -4.0232,-16.53413 -3.6972,-69.12782 0.3039,-49.01597 0.3919,-51.0543 2.4179,-55.99946 3.2958,-8.04455 6.9052,-12.00656 14.2219,-15.61126 l 6.6105,-3.25678 23.2384,-0.31615 23.2383,-0.31616 0.2877,-58.68384 0.2876,-58.68385 2.7988,-5.69936 c 5.6031,-11.41011 13.8087,-15.30015 84.2012,-39.91758 l 55,-19.2344 8.7882,0.0695 c 7.5849,0.06 9.5702,0.46055 14.5,2.92567 5.1144,2.55749 6.0507,3.536 8.9521,9.3562 5.3334,10.69855 5.489,13.85516 4.7212,95.75 l -0.6962,74.25 42.4359,0 c 47.1067,0 48.4209,0.14882 56.9587,6.44971 3.4008,2.50974 5.5625,5.27233 8,10.22363 l 3.3401,6.78461 0,56.52102 c 0,51.89624 -0.1476,56.9441 -1.804,61.69155 -2.3031,6.60123 -8.5279,13.67431 -15.0727,17.12681 L 2964.5,641.5 l -44.3493,0.28955 -44.3493,0.28955 0.3493,191.21045 0.3493,191.21045 -2.2325,5.5111 c -2.5159,6.2108 -7.5786,11.9149 -13.8236,15.5747 -8.6546,5.0719 -13.1534,5.3872 -75.4439,5.2873 -31.625,-0.051 -59.5046,-0.4852 -61.9547,-0.9655 z"
     style="fill:#fff"
     sodipodi:nodetypes="ccscssscscsscccssscscscscssscscccscsscccscscsscsscccscscccsssscsccccccccsscccccssscccscccsssssscccccsscsssscssscscscccccsssc" />
</svg>
